<?xml version="1.0" standalone="no"?>
<!DOCTYPE svg PUBLIC "-//W3C//DTD SVG 20010904//EN"
 "http://www.w3.org/TR/2001/REC-SVG-20010904/DTD/svg10.dtd">
<svg version="1.0" xmlns="http://www.w3.org/2000/svg"
 width="700.000000pt" height="700.000000pt" viewBox="0 0 700.000000 700.000000"
 preserveAspectRatio="xMidYMid meet">
<metadata>
Created by potrace 1.14, written by Peter Selinger 2001-2017
</metadata>
<g transform="translate(0.000000,700.000000) scale(0.100000,-0.100000)"
fill="#000000" stroke="none">
<path d="M3278 6995 c-1 -1 -42 -5 -89 -9 -47 -4 -95 -8 -106 -10 -11 -3 -44
-7 -74 -11 -30 -4 -76 -11 -104 -16 -27 -5 -65 -12 -84 -15 -77 -13 -314 -76
-426 -113 l-120 -41 -1137 0 -1138 0 0 -108 0 -109 895 1 c492 1 895 -2 895
-5 0 -4 -39 -29 -87 -57 -49 -28 -122 -74 -163 -103 l-75 -53 -725 -2 c-399
-1 -729 -3 -733 -3 -4 -1 -6 -49 -5 -108 l3 -108 583 0 c320 0 582 -2 582 -5
0 -3 -48 -52 -106 -110 l-106 -104 -477 -1 -476 0 -3 -107 c-3 -106 -2 -108
20 -108 13 -1 184 -1 381 -1 197 0 357 -3 355 -7 -2 -5 -37 -54 -78 -110 l-75
-102 -302 0 -303 0 0 -110 0 -110 236 0 236 0 -20 -32 c-11 -18 -39 -67 -61
-108 l-40 -75 -175 -3 -176 -2 0 -110 0 -109 120 1 c66 1 122 -1 125 -4 3 -2
-12 -52 -33 -109 l-39 -104 -84 0 -84 -1 -3 -110 -3 -110 56 1 c50 1 54 0 50
-19 -29 -135 -56 -269 -60 -301 -3 -22 -7 -51 -10 -65 -6 -29 -11 -68 -22
-190 -15 -165 -8 -589 12 -711 2 -13 6 -46 10 -74 12 -98 22 -157 50 -285 12
-56 49 -195 66 -248 12 -35 18 -66 15 -70 -4 -3 -42 -6 -86 -6 l-80 1 0 -109
c0 -79 3 -108 13 -109 6 0 63 -1 126 -2 l115 -2 47 -105 48 -105 -174 -3 -175
-2 0 -110 0 -110 234 0 234 0 23 -37 c12 -21 42 -68 66 -105 24 -37 43 -69 43
-72 0 -4 -135 -6 -300 -6 l-300 0 0 -109 0 -110 382 1 383 0 30 -34 c109 -123
150 -171 153 -177 1 -4 -207 -7 -464 -7 -256 1 -470 -2 -475 -5 -6 -3 -8 -52
-7 -110 l3 -104 591 0 591 0 59 -51 c32 -28 92 -76 133 -107 40 -32 67 -58 60
-58 -8 -1 -333 -2 -724 -3 l-710 -1 -3 -108 c-2 -82 0 -107 10 -108 7 0 413
-1 902 -1 l890 -1 135 -68 c75 -37 181 -86 236 -108 l100 -41 -75 0 c-41 0
-553 0 -1137 0 l-1063 0 0 -110 0 -110 3500 0 3500 0 0 110 0 110 -1137 0
-1138 1 100 39 c55 22 162 71 237 108 l137 69 883 1 c486 0 891 1 901 1 15 1
17 13 17 109 l0 108 -717 -1 c-395 -1 -721 0 -725 2 -5 2 36 38 90 80 53 41
112 89 130 107 l33 31 595 0 595 0 -3 110 -3 109 -473 0 c-260 0 -471 3 -470
7 2 3 30 37 63 74 33 37 74 83 90 102 l31 35 379 1 380 2 3 108 3 107 -301 0
c-166 0 -300 3 -298 8 2 4 32 53 66 110 l64 102 234 0 234 0 0 110 0 110 -175
0 c-96 0 -175 2 -175 3 0 2 6 17 14 33 8 16 30 64 50 107 l35 77 123 -1 123
-2 3 110 3 110 -83 -1 c-99 -1 -95 -15 -44 169 20 72 38 139 40 150 34 180 46
248 51 290 4 28 8 61 11 75 26 151 25 646 -1 830 -2 14 -6 41 -9 60 -2 19 -8
58 -11 85 -4 28 -20 106 -35 175 -15 69 -26 128 -24 131 1 3 26 5 54 4 l50 -2
0 111 0 111 -87 0 -86 0 -39 104 c-21 57 -36 106 -33 109 3 3 59 5 125 4 l120
0 0 109 0 109 -176 2 -177 3 -34 65 c-19 36 -45 84 -58 108 l-24 42 235 0 234
0 0 110 0 110 -303 0 -303 0 -74 102 c-41 56 -76 105 -78 109 -2 4 147 8 330
8 183 0 354 0 381 0 l47 1 0 108 0 108 -477 0 -478 -1 -113 110 -113 110 588
0 588 0 3 110 3 110 -733 1 -733 0 -120 81 c-66 44 -142 92 -170 107 -27 14
-43 26 -35 27 8 0 414 1 903 1 l887 1 0 109 0 108 -1136 0 -1135 0 -122 40
c-175 58 -414 117 -547 135 -19 3 -46 7 -60 10 -13 2 -52 7 -86 11 -33 3 -74
8 -90 10 -32 5 -540 14 -546 9z"/>
</g>
</svg>
